<?xml version="1.0" standalone="no"?>
<!DOCTYPE svg PUBLIC "-//W3C//DTD SVG 20010904//EN"
 "http://www.w3.org/TR/2001/REC-SVG-20010904/DTD/svg10.dtd">
<svg version="1.0" xmlns="http://www.w3.org/2000/svg"
 width="100.000000pt" height="100.000000pt" viewBox="0 0 100.000000 100.000000"
 preserveAspectRatio="xMidYMid meet">
<metadata>
Created by potrace 1.13, written by Peter Selinger 2001-2015
</metadata>
<g transform="translate(0.000000,100.000000) scale(0.100000,-0.100000)"
fill="#000000" stroke="none">
<path d="M310 910 c-97 -10 -106 -15 -120 -64 -7 -25 -9 -49 -6 -55 8 -13 96
-41 151 -47 54 -7 57 -14 7 -14 -40 0 -42 -2 -75 -57 -18 -32 -40 -59 -49 -61
-8 -2 -29 10 -46 27 l-32 29 0 -47 c0 -52 10 -66 71 -93 33 -15 36 -20 47 -82
7 -36 15 -80 19 -97 l6 -30 -39 16 c-45 18 -73 42 -85 70 -6 16 -8 13 -8 -16
-1 -49 34 -97 91 -127 40 -21 50 -31 59 -64 6 -22 8 -42 6 -44 -11 -11 -60 23
-74 50 -25 48 -28 12 -3 -39 26 -53 64 -79 151 -101 146 -38 379 14 379 83 0
8 9 26 19 39 11 15 17 33 14 45 -6 20 -7 19 -18 -7 -6 -16 -14 -24 -18 -17 -8
12 20 73 33 73 5 0 14 18 20 40 6 21 15 42 20 45 6 3 15 16 21 28 12 21 11 21
-8 4 -11 -9 -23 -14 -26 -10 -4 3 -7 -1 -7 -10 0 -10 -4 -17 -9 -17 -13 0 -10
130 5 158 l13 25 4 -34 4 -34 1 37 c1 20 7 40 13 44 7 4 9 21 6 40 -3 19 -1
36 4 39 5 4 9 14 9 23 0 14 -2 13 -13 -2 -10 -14 -14 -15 -15 -5 -19 182 -25
226 -34 236 -14 17 -28 16 -28 -1 0 -8 -8 -17 -17 -20 -14 -6 -223 -16 -305
-16 -12 0 -19 -12 -24 -45 -3 -25 -9 -47 -13 -49 -7 -4 -161 11 -167 16 -1 2
0 22 3 46 l6 42 48 0 c26 0 50 4 53 9 3 5 35 12 71 16 46 5 65 11 65 21 0 15
-60 17 -180 4z m40 -421 l0 -180 -27 3 -28 3 -3 178 -2 177 30 0 30 0 0 -181z
m106 167 c17 -13 19 -27 19 -160 0 -160 -3 -170 -63 -182 -29 -6 -32 -4 -32
19 0 16 7 26 20 30 19 5 20 14 20 126 0 110 -2 122 -20 133 -11 7 -20 21 -20
30 0 22 47 25 76 4z m122 -163 l-3 -178 -27 -3 -28 -3 0 180 0 181 30 0 30 0
-2 -177z m142 158 c0 -10 -6 -21 -14 -24 -9 -4 -17 -28 -21 -62 -4 -30 -11
-58 -16 -61 -5 -3 -4 -13 1 -22 5 -9 12 -39 15 -65 4 -28 12 -50 21 -54 8 -3
14 -16 14 -29 0 -18 -5 -24 -22 -24 -13 0 -29 4 -36 8 -16 10 -32 66 -32 110
0 20 -6 35 -15 38 -19 8 -20 38 -1 53 7 6 16 36 19 67 7 66 19 84 58 84 22 0
29 -5 29 -19z"/>
</g>
</svg>
